<svg width="36" height="36" viewBox="0 0 36 36" fill="none" xmlns="http://www.w3.org/2000/svg">
<rect width="36" height="36" rx="6.25" fill="#f0dfb8"/>
<path d="M18.102 7.02615C23.2629 7.78509 19.1022 12.0017 16.659 16.6106C14.5609 20.5684 25.5732 26.1571 21.5728 28.1905C16.0333 31.0063 9.25996 28.7982 6.4442 23.2587C3.62845 17.7192 5.8365 10.9459 11.376 8.13014C13.5331 7.03369 15.8772 6.699 18.102 7.02615Z" fill="#161326"/>
<path d="M21.19 14.3314C23.353 16.9491 25.9121 18.4053 20.3666 22.9875C17.7489 25.1504 13.8735 24.7817 11.7105 22.1641C9.5476 19.5464 9.91624 15.6709 12.5339 13.508C15.1516 11.345 19.0271 11.7137 21.19 14.3314Z" fill="#c6a15b"/>
<circle cx="26.0094" cy="18.1315" r="1.35265" transform="rotate(-26.9444 26.0094 18.1315)" fill="#161326"/>
</svg>
