<svg width="16" height="23" viewBox="0 0 16 23" fill="none" xmlns="http://www.w3.org/2000/svg">
<path d="M8.00119 3.587C6.31142 3.62821 4.91016 4.20521 3.79738 5.31798C2.68461 6.43075 2.10762 7.83202 2.06641 9.52178C2.06641 10.1606 2.14883 10.7376 2.31369 11.2528C2.47854 11.7885 2.79795 12.417 3.27191 13.1383C3.74587 13.8801 4.42589 14.8796 5.31199 16.1366C5.90959 16.9609 6.59992 17.95 7.38298 19.104C7.54784 19.3101 7.75391 19.4131 8.00119 19.4131C8.24847 19.4131 8.45454 19.3101 8.6194 19.104C9.42306 17.9294 10.1134 16.93 10.6904 16.1057C11.5765 14.8693 12.2565 13.8801 12.7305 13.1383C13.2044 12.417 13.5238 11.7885 13.6887 11.2528C13.8535 10.7376 13.936 10.1606 13.936 9.52178C13.8948 7.83202 13.3178 6.43075 12.205 5.31798C11.0922 4.20521 9.69095 3.62821 8.00119 3.587ZM8.00119 18.2385C7.30055 17.2288 6.69265 16.353 6.17748 15.6111C5.29138 14.3541 4.62166 13.3856 4.16831 12.7055C3.71496 12.0049 3.41616 11.4279 3.27191 10.9746C3.10705 10.5212 3.03493 10.037 3.05554 9.52178C3.09675 8.12051 3.58101 6.95622 4.50832 6.02891C5.43563 5.1016 6.59992 4.61734 8.00119 4.57613C9.40246 4.61734 10.5667 5.1016 11.4941 6.02891C12.4214 6.95622 12.9056 8.12051 12.9468 9.52178C12.9674 10.037 12.8953 10.5212 12.7305 10.9746C12.5862 11.4279 12.2977 11.9946 11.865 12.6746C11.4116 13.3547 10.7522 14.3026 9.88672 15.5184C9.35094 16.2808 8.72243 17.1875 8.00119 18.2385ZM8.00119 7.01805C7.30055 7.03865 6.71326 7.28593 6.2393 7.75989C5.78595 8.21324 5.54897 8.79024 5.52836 9.49087C5.54897 10.1915 5.78595 10.7788 6.2393 11.2528C6.71326 11.7061 7.30055 11.9431 8.00119 11.9637C8.70182 11.9431 9.28912 11.7061 9.76308 11.2528C10.2164 10.7788 10.4534 10.1915 10.474 9.49087C10.4534 8.79024 10.2164 8.21324 9.76308 7.75989C9.28912 7.28593 8.70182 7.03865 8.00119 7.01805ZM8.00119 10.9746C7.58905 10.9746 7.23873 10.8303 6.95024 10.5418C6.68235 10.2533 6.5381 9.90301 6.51749 9.49087C6.5381 9.07873 6.68235 8.72842 6.95024 8.43992C7.23873 8.17203 7.58905 8.02778 8.00119 8.00718C8.41333 8.02778 8.76364 8.17203 9.05214 8.43992C9.32003 8.72842 9.46428 9.07873 9.48488 9.49087C9.46428 9.90301 9.32003 10.2533 9.05214 10.5418C8.76364 10.8303 8.41333 10.9746 8.00119 10.9746Z" fill="#D1DE6F"/>
</svg>
